HIERARCHY
ROOT SpineBase
{
  OFFSET 0.000000 0.000000 0.000000
  CHANNELS 6 Xposition Yposition Zposition Zrotation Xrotation Yrotation
  JOINT SpineMid
  {
    OFFSET 0.000000 35.693714 0.000000
    CHANNELS 3 Zrotation Xrotation Yrotation
    JOINT SpineShoulder
    {
      OFFSET 0.380533 25.949699 -0.906051
      CHANNELS 3 Zrotation Xrotation Yrotation
      JOINT Neck
      {
        OFFSET 0.253214 8.499318 -0.679553
        CHANNELS 3 Zrotation Xrotation Yrotation
        JOINT Head
        {
          OFFSET 1.397936 9.825968 3.618852
          CHANNELS 3 Zrotation Xrotation Yrotation
          End Site
          {
            OFFSET 0 0 0
          }
        }
      }
      JOINT ShoulderLeft
      {
        OFFSET -10.423303 -5.640653 -3.294778
        CHANNELS 3 Zrotation Xrotation Yrotation
        JOINT ElbowLeft
        {
          OFFSET 21.424815 -12.909155 -8.728503
          CHANNELS 3 Zrotation Xrotation Yrotation
          JOINT WristLeft
          {
            OFFSET 7.655984 -24.168865 2.757285
            CHANNELS 3 Zrotation Xrotation Yrotation
            JOINT HandLeft
            {
              OFFSET 0.282665 -7.760960 2.948140
              CHANNELS 3 Zrotation Xrotation Yrotation
              JOINT HandTipLeft
              {
                OFFSET 2.834956 -7.555577 1.933735
                CHANNELS 3 Zrotation Xrotation Yrotation
                End Site
                {
                  OFFSET 0 0 0
                }
              }
              JOINT ThumbLeft
              {
                OFFSET -4.312402 0.303438 -0.289851
                CHANNELS 3 Zrotation Xrotation Yrotation
                End Site
                {
                  OFFSET 0 0 0
                }
              }
            }
          }
        }
      }
      JOINT ShoulderRight
      {
        OFFSET 11.355025 -7.254201 -12.142503
        CHANNELS 3 Zrotation Xrotation Yrotation
        JOINT ElbowRight
        {
          OFFSET 5.704353 -24.808384 0.380751
          CHANNELS 3 Zrotation Xrotation Yrotation
          JOINT WristRight
          {
            OFFSET 2.731643 -23.605573 7.266940
            CHANNELS 3 Zrotation Xrotation Yrotation
            JOINT HandRight
            {
              OFFSET -0.726605 -7.210784 2.079021
              CHANNELS 3 Zrotation Xrotation Yrotation
              JOINT HandTipRight
              {
                OFFSET -0.789901 -6.420292 0.379156
                CHANNELS 3 Zrotation Xrotation Yrotation
                End Site
                {
                  OFFSET 0 0 0
                }
              }
              JOINT ThumbRight
              {
                OFFSET -2.761366 0.429715 -5.307708
                CHANNELS 3 Zrotation Xrotation Yrotation
                End Site
                {
                  OFFSET 0 0 0
                }
              }
            }
          }
        }
      }
    }
  }
  JOINT HipLeft
  {
    OFFSET -4.026081 0.427488 -1.578338
    CHANNELS 3 Zrotation Xrotation Yrotation
    JOINT KneeLeft
    {
      OFFSET -6.402524 -34.166133 2.213612
      CHANNELS 3 Zrotation Xrotation Yrotation
      JOINT AnkleLeft
      {
        OFFSET -3.633112 -33.163179 1.461956
        CHANNELS 3 Zrotation Xrotation Yrotation
        JOINT FootLeft
        {
          OFFSET -2.811637 -3.073822 -12.419013
          CHANNELS 3 Zrotation Xrotation Yrotation
          End Site
          {
            OFFSET 0 0 0
          }
        }
      }
    }
  }
  JOINT HipRight
  {
    OFFSET 6.053919 0.743239 -6.001499
    CHANNELS 3 Zrotation Xrotation Yrotation
    JOINT KneeRight
    {
      OFFSET -1.353134 -34.372887 -1.264289
      CHANNELS 3 Zrotation Xrotation Yrotation
      JOINT AnkleRight
      {
        OFFSET -0.244412 -34.763627 -2.099535
        CHANNELS 3 Zrotation Xrotation Yrotation
        JOINT FootRight
        {
          OFFSET -3.020220 -2.971460 -12.408730
          CHANNELS 3 Zrotation Xrotation Yrotation
          End Site
          {
            OFFSET 0 0 0
          }
        }
      }
    }
  }
}
MOTION
Frames: 5
Frame Time: 0.033333
-55.919637 71.356760 256.044835 -1.090265 -0.386457 24.960703 0.091465 -0.132570 -24.991866 0.223856 0.093916 -0.020966 1.525688 -0.466360 -0.129481 0.000000 0.000000 0.000000 -1.068775 -2.601800 -3.882933 -5.958322 0.594947 2.560358 -5.914668 1.673268 -3.354415 7.817585 -0.874166 2.898548 0.000000 0.000000 0.000000 0.000000 0.000000 0.000000 0.727178 0.374840 0.044615 -1.216968 0.860511 -0.266881 -0.901777 -1.662006 -0.292123 3.731582 0.227712 0.670255 0.000000 0.000000 0.000000 0.000000 0.000000 0.000000 2.119981 -0.749719 -24.849299 -2.008182 0.118113 -0.134432 1.850364 1.852784 -5.330066 0.000000 0.000000 0.000000 0.268220 -1.304222 -24.905940 0.298284 1.455272 -0.072025 0.811384 0.304554 -3.684431 0.000000 0.000000 0.000000
-55.855633 71.386292 256.020342 -1.260740 -0.395806 25.000159 0.145104 -0.138375 -25.036333 0.297132 0.133154 -0.021747 0.533682 -0.466523 0.251473 0.000000 0.000000 0.000000 -1.781436 -2.837326 -3.736405 -5.110596 0.594127 2.310725 -6.256912 2.401921 -3.246801 7.220050 -2.120729 2.416365 0.000000 0.000000 0.000000 0.000000 0.000000 0.000000 -0.109599 -0.177470 -0.078706 -0.700524 1.208971 -0.256821 -0.646572 -2.366767 -0.120630 4.295241 -0.130286 0.762118 0.000000 0.000000 0.000000 0.000000 0.000000 0.000000 2.139992 -1.717566 -24.700901 -2.223617 1.851937 -0.377436 1.735879 -0.818077 -3.522319 0.000000 0.000000 0.000000 -0.494026 -1.874814 -24.910354 1.217995 3.337093 -0.182585 0.616238 -0.687385 -4.097637 0.000000 0.000000 0.000000
-55.749611 71.343682 255.950782 -1.291611 -0.390359 24.743532 0.315897 -0.137651 -24.776089 0.946911 0.383599 0.024273 -0.000000 0.000000 0.000000 0.000000 0.000000 0.000000 -4.999374 -3.814227 -3.442785 -1.211296 0.970825 1.764788 -7.582816 2.056207 -3.195010 4.796386 -1.767934 1.631203 0.000000 0.000000 0.000000 0.000000 0.000000 0.000000 -1.099784 -0.593037 -0.159272 -0.484558 1.183532 -0.247101 -0.659993 -3.314180 -0.024026 5.081597 1.249188 0.575072 0.000000 0.000000 0.000000 0.000000 0.000000 0.000000 2.215522 -2.840528 -24.214906 -3.512652 3.614335 -0.634048 2.419693 -3.207397 -1.406794 0.000000 0.000000 0.000000 -2.236975 -2.570925 -24.604875 3.629611 5.875616 -0.509785 -0.465836 -1.894282 -3.899275 0.000000 0.000000 0.000000
-55.771613 71.379474 255.864112 -0.988186 -0.300947 24.586241 1.023800 -0.137507 -24.587608 -0.000000 0.000000 0.000000 -0.034785 1.132142 -0.147377 0.000000 0.000000 0.000000 -7.583913 -4.675257 -3.406172 4.399835 1.822068 1.604789 -11.838930 3.205700 -3.583354 5.927074 -3.753898 1.409925 0.000000 0.000000 0.000000 0.000000 0.000000 0.000000 -0.000000 0.000000 0.000000 -1.094788 0.578405 -0.265284 0.660914 -4.613660 0.529502 4.387381 5.996002 -0.647705 0.000000 0.000000 0.000000 0.000000 0.000000 0.000000 1.435891 -4.352316 -23.745924 -4.719944 6.384181 -0.935084 3.432444 -4.188651 -1.132967 0.000000 0.000000 0.000000 -4.336818 -3.508436 -24.421878 6.373334 8.982942 -1.049577 -1.955198 -3.423167 -3.656886 0.000000 0.000000 0.000000
-56.016705 71.555236 255.840838 -0.299742 -0.123012 25.263747 0.323572 -0.016680 -25.264022 -0.000000 0.000000 0.000000 2.683456 2.819502 -1.447372 0.000000 0.000000 0.000000 -10.672746 -5.789822 -3.601873 11.432535 3.157160 1.483189 -19.898906 3.497076 -5.197116 11.326654 -4.726303 2.607533 0.000000 0.000000 0.000000 0.000000 0.000000 0.000000 1.116220 -0.886389 -0.177632 -1.119096 0.882756 0.194888 0.060164 -4.404480 0.458639 5.341342 6.489796 -0.915374 0.000000 0.000000 0.000000 0.000000 0.000000 0.000000 -0.609387 -5.588908 -24.191111 -5.013337 9.518537 -1.179738 4.253816 -6.575995 0.911357 0.000000 0.000000 0.000000 -6.490256 -4.487021 -25.101598 8.926864 12.172036 -1.764120 -3.563937 -4.998008 -3.806889 0.000000 0.000000 0.000000
